<?xml version="1.0" encoding="UTF-8" standalone="no"?>
<svg width="650" height="800" viewBox="0 0 650 800" fill="none" xmlns="http://www.w3.org/2000/svg">
  <rect width="650" height="800" fill="#FFFFFF"/>
  <text x="325" y="60" font-family="Arial" font-size="24" fill="#1E3A8A" text-anchor="middle" dominant-baseline="middle">Detailed Report</text>
  
  <!-- Header Section -->
  <rect x="50" y="100" width="550" height="80" rx="5" fill="#F3F4F6"/>
  <rect x="70" y="120" width="300" height="20" rx="3" fill="#1E3A8A"/>
  <rect x="70" y="150" width="200" height="15" rx="3" fill="#9CA3AF"/>
  
  <!-- Sentiment Overview -->
  <rect x="50" y="200" width="250" height="150" rx="5" fill="#F3F4F6"/>
  <text x="175" y="220" font-family="Arial" font-size="16" fill="#1E3A8A" text-anchor="middle">Sentiment Overview</text>
  <rect x="70" y="240" width="210" height="20" rx="3" fill="#2DD4BF" opacity="0.7"/>
  <rect x="70" y="270" width="60" height="20" rx="3" fill="#9CA3AF"/>
  <rect x="70" y="300" width="130" height="20" rx="3" fill="#EF4444" opacity="0.7"/>
  
  <!-- Rating Distribution -->
  <rect x="320" y="200" width="280" height="150" rx="5" fill="#F3F4F6"/>
  <text x="460" y="220" font-family="Arial" font-size="16" fill="#1E3A8A" text-anchor="middle">Rating Distribution</text>
  <rect x="340" y="240" width="240" height="15" rx="3" fill="#2DD4BF" opacity="0.7"/>
  <rect x="340" y="265" width="180" height="15" rx="3" fill="#2DD4BF" opacity="0.5"/>
  <rect x="340" y="290" width="100" height="15" rx="3" fill="#2DD4BF" opacity="0.3"/>
  <rect x="340" y="315" width="50" height="15" rx="3" fill="#EF4444" opacity="0.5"/>
  
  <!-- Topics section -->
  <rect x="50" y="370" width="550" height="130" rx="5" fill="#F3F4F6"/>
  <text x="325" y="390" font-family="Arial" font-size="16" fill="#1E3A8A" text-anchor="middle">Key Topics</text>
  <rect x="70" y="410" width="80" height="25" rx="12" fill="#2DD4BF" opacity="0.7"/>
  <rect x="160" y="410" width="100" height="25" rx="12" fill="#2DD4BF" opacity="0.5"/>
  <rect x="270" y="410" width="90" height="25" rx="12" fill="#2DD4BF" opacity="0.3"/>
  <rect x="370" y="410" width="110" height="25" rx="12" fill="#1E3A8A" opacity="0.5"/>
  <rect x="70" y="445" width="120" height="25" rx="12" fill="#1E3A8A" opacity="0.3"/>
  <rect x="200" y="445" width="70" height="25" rx="12" fill="#EF4444" opacity="0.5"/>
  
  <!-- Ratings trend -->
  <rect x="50" y="520" width="550" height="200" rx="5" fill="#F3F4F6"/>
  <text x="325" y="540" font-family="Arial" font-size="16" fill="#1E3A8A" text-anchor="middle">Ratings Trend</text>
  <!-- Simple line chart -->
  <polyline points="70,650 130,620 190,640 250,600 310,630 370,610 430,590 490,620 550,600" stroke="#2DD4BF" stroke-width="3" fill="none"/>
  <polyline points="70,650 130,660 190,670 250,640 310,680 370,650 430,680 490,650 550,640" stroke="#EF4444" stroke-opacity="0.7" stroke-width="2" fill="none"/>
  
  <!-- Bottom section -->
  <rect x="50" y="740" width="270" height="40" rx="5" fill="#F3F4F6"/>
  <rect x="330" y="740" width="270" height="40" rx="5" fill="#F3F4F6"/>
</svg>
